# xmcd
#
# Track frame offsets: 
#        187
#        11557
#        23202
#        34492
#        44897
#        56092
#        64950
#        76017
#        86727
#        96897
#        108597
#        121190
#
# Disc length: 1809 seconds
#
# Revision: 2
# Processed by: cddbd v1.5.1PL0 Copyright (c) Steve Scherf et al.
# Submitted via: ExactAudioCopy v0.90b4
#
DISCID=a2070f0c
DTITLE=Patsy Cline - Patsy Cline
DYEAR=1957
DGENRE=Country
TTITLE0=That Wonderful Someone
TTITLE1=In Care Of The Blues
TTITLE2=Hungry For Love
TTITLE3=Too Many Secrets
TTITLE4=Don't Ever Leave Me Again
TTITLE5=Ain't No Wheels On This Ship
TTITLE6=I Can't Forget
TTITLE7=I Don't Wanna
TTITLE8=Three Cigarettes (In An Ashtray)
TTITLE9=Walkin' After Midnight
TTITLE10=Fingerprints
TTITLE11=Then You'll Know
EXTD=Originally Released 1957\nCD Edition Released 1988\n\nAMG EXPERT 
EXTD=REVIEW: While Patsy Cline is generally remembered as a country ar
EXTD=tist, she also had many pop hits. This album shows both sides of 
EXTD=her musical personality to good effect. Interesting also because 
EXTD=she co-wrote one of the songs under her real name, Virginia Hensl
EXTD=ey. ~ Jim Worbois, All Music Guide\n\nHalf.com Album Credits\nOwe
EXTD=n Bradley, Producer\n\nAlbum Notes\nPersonnel includes: Patsy Cli
EXTD=ne (vocals), Anita Kerr Singers (background vocals).\n\nIncludes 
EXTD=chronology plus recent liner notes by Jay Orr and Don Roy and ori
EXTD=ginal release liner notes.\n\nThis is Patsy Cline's first release
EXTD=and it includes her first big cross-over hit "Walkin' After Midn
EXTD=ight," which reached #3 on the country charts and #12 on the pop 
EXTD=charts.
EXTT0=
EXTT1=
EXTT2=
EXTT3=
EXTT4=
EXTT5=
EXTT6=
EXTT7=
EXTT8=
EXTT9=
EXTT10=
EXTT11=
PLAYORDER=
